<?xml version="1.0" encoding="UTF-8"?>
<svg width="6000px" height="910px" viewBox="0 0 6000 910" version="1.1" xmlns="http://www.w3.org/2000/svg" xmlns:xlink="http://www.w3.org/1999/xlink">
    <title>hsd-api-banner</title>
    <g id="hsd-api-banner" stroke="none" stroke-width="1" fill="none" fill-rule="evenodd">
        <g id="Group" transform="translate(2244.000000, 267.000000)">
            <path d="M836.356017,0 C853.577133,0 870.188689,2.23661577 886.191326,6.7099187 C902.193981,11.1832395 917.140342,17.4864148 931.030926,25.6197301 C944.921528,33.752992 957.593455,43.5534538 969.047117,55.0214011 C971.002071,56.9787934 972.908507,58.9717215 974.766426,61.0001875 L947.5,61 C930.775367,61 914.802845,64.22017 900.168625,70.0743192 C896.408631,68.0308479 892.520767,66.1436348 888.506417,64.4153159 C872.260084,57.4206714 854.876784,53.9234206 836.356017,53.9234206 C824.171268,53.9234206 812.433537,55.4687279 801.142309,58.5593781 C789.85108,61.6500104 779.33181,66.0419325 769.584,71.7352337 L748.382669,35.6236083 L748.382669,340.620374 L769.340304,304.264766 C779.250566,309.95805 789.85108,314.349972 801.142309,317.440622 C812.433537,320.531272 824.171268,322.076579 836.356017,322.076579 C854.876784,322.076579 872.260084,318.579329 888.506417,311.584684 C892.147305,310.01715 895.684147,308.320953 899.116948,306.49609 C914.03504,312.623085 930.37316,316 947.5,316 L947.5,316 L973.843222,316.000522 C972.278354,317.684657 970.679653,319.344009 969.047117,320.978581 C957.593455,332.446528 944.921528,342.246972 931.030926,350.38027 C917.140342,358.513567 902.193981,364.816761 886.191326,369.290063 C870.188689,373.763384 853.577133,376 836.356017,376 C820.434624,376 805.082062,374.129384 790.297957,370.388062 C775.513834,366.64674 761.542184,361.19751 748.382669,354.040229 L748.382669,367.948083 L694.282722,367.948083 L694.282722,8.05189887 L748.382669,8.05189887 L748.382669,21.9597534 C761.542184,14.9651268 775.513834,9.55656926 790.297957,5.73393799 C805.082062,1.91128887 820.434624,0 836.356017,0 Z M496.403608,116.630757 C514.274568,116.630757 531.089233,120.04668 546.848174,126.878652 C562.607098,133.710607 576.335016,142.982432 588.032356,154.694344 C599.729715,166.406273 608.990009,180.15133 615.813417,195.929908 C622.636844,211.708486 626.048548,228.54414 626.048548,246.437369 C626.048548,264.330617 622.636844,281.125598 615.813417,296.822849 C608.990009,312.520099 599.729715,326.224466 588.032356,337.936413 C576.335016,349.648342 562.607098,358.92015 546.848174,365.752104 C531.089233,372.584076 514.274568,376 496.403608,376 C482.91919,376 470.003531,374.048056 457.656348,370.144062 C445.309164,366.240068 433.936906,360.750201 423.53927,353.674229 C413.141634,346.598275 403.962601,338.139794 396.001904,328.298499 C388.041208,318.457222 381.624018,307.680797 376.750122,295.96885 L426.463582,275.229077 C429.387913,282.061031 433.205747,288.364224 437.917174,294.138871 C442.628618,299.913517 448.030421,304.87473 454.122796,309.022706 C460.21517,313.1707 466.835452,316.383278 473.983817,318.660602 C481.132183,320.937944 488.605382,322.076579 496.403608,322.076579 C506.801244,322.076579 516.630138,320.083945 525.890522,316.098642 C535.150905,312.11332 543.192721,306.704763 550.016183,299.872809 C556.839627,293.040854 562.241447,285.029682 566.221804,275.839058 C570.202144,266.648453 572.192278,256.847973 572.192278,246.437369 C572.192278,236.026766 570.202144,226.185649 566.221804,216.913698 C562.241447,207.64173 556.839627,199.589903 550.016183,192.757948 C543.192721,185.925976 535.150905,180.517437 525.890522,176.532115 C516.630138,172.546811 506.801244,170.554177 496.403608,170.554177 L496.403608,116.630757 Z M54.0999477,8.05189887 L54.0999477,161.038281 L244.911939,161.038281 L244.911939,8.05189887 L298.768209,8.05189887 L298.768209,367.948083 L244.911939,367.948083 L244.911939,214.961701 L54.0999477,214.961701 L54.0999477,367.948083 L0,367.948083 L0,8.05189887 L54.0999477,8.05189887 Z M496.403608,0 C509.888045,0 522.803703,1.95194358 535.150887,5.85593781 C547.498053,9.75993204 558.829707,15.249799 569.146117,22.3257529 C579.462492,29.4017067 588.641524,37.8602062 596.683483,47.7014833 C604.725441,57.5427783 611.183235,68.319203 616.057113,80.03115 L566.343652,100.770923 C563.419322,93.9389689 559.64211,87.6357757 555.011891,81.8611295 C550.381691,76.0864654 545.020492,71.1252703 538.928135,66.9772764 C532.83576,62.8293004 526.174875,59.6167217 518.945265,57.3393799 C511.715638,55.0620559 504.201835,53.9234206 496.403608,53.9234206 C486.005973,53.9234206 476.217718,55.9160367 467.038543,59.9013582 C457.859386,63.8866797 449.858192,69.2952194 443.034748,76.1271915 C436.211286,82.9591457 430.809483,91.0109732 426.829126,100.282924 C422.848769,109.554874 420.858635,119.396009 420.858635,129.806612 C420.858635,140.217216 422.848769,150.017696 426.829126,159.208301 C430.809483,168.398925 436.211286,176.41008 443.034748,183.242052 C449.858192,190.074006 457.859386,195.482563 467.038543,199.467867 C476.217718,203.453189 486.005973,205.445805 496.403608,205.445805 L496.403608,259.369243 C478.532667,259.369243 461.758624,255.953302 446.080909,249.121348 C430.403211,242.289393 416.715915,233.017568 405.018556,221.305638 C393.321198,209.593709 384.060957,195.889325 377.237495,180.192074 C370.414051,164.494841 367.002383,147.699842 367.002383,129.806612 C367.002383,111.913383 370.414051,95.077729 377.237495,79.2991511 C384.060957,63.5205732 393.321198,49.7755338 405.018556,38.0635868 C416.715915,26.3516398 430.403211,17.0798498 446.080909,10.2478778 C461.758624,3.41592357 478.532667,0 496.403608,0 Z" id="HSD" fill="#E60028"></path>
            <g id="Pill" transform="translate(840.000000, 76.000000)">
                <rect id="Rectangle" fill="#2C8EFF" x="0" y="5" width="672" height="215" rx="107.5"></rect>
                <path d="M117.2,186 L117.2,137.2 L129.8,137.2 C139.933333,137.2 148.933333,136.333333 156.8,134.6 C164.666667,132.866667 171.333333,130.166667 176.8,126.5 C182.266667,122.833333 186.433333,118.1 189.3,112.3 C192.166667,106.5 193.6,99.5333333 193.6,91.4 C193.6,75.8 188.233333,64.3333333 177.5,57 C166.766667,49.6666667 151.333333,46 131.2,46 C125.2,46 118.633333,46.2333333 111.5,46.7 C104.366667,47.1666667 97.8666667,48.0666667 92,49.4 L92,49.4 L92,186 L117.2,186 Z M129.4,115.6 L117.2,115.6 L117.2,68.4 C121.333333,68 126.6,67.8 133,67.8 C137.8,67.8 142.3,68.1666667 146.5,68.9 C150.7,69.6333333 154.333333,70.8666667 157.4,72.6 C160.466667,74.3333333 162.866667,76.7333333 164.6,79.8 C166.333333,82.8666667 167.2,86.6666667 167.2,91.2 C167.2,100.666667 163.933333,107.1 157.4,110.5 C150.866667,113.9 141.533333,115.6 129.4,115.6 L129.4,115.6 Z M304.2,186 L304.2,164.2 L241.8,164.2 L241.8,47.4 L216.6,47.4 L216.6,186 L304.2,186 Z M339,186 C340.866667,180.666667 342.766667,175.3 344.7,169.9 C346.633333,164.5 348.533333,159 350.4,153.4 L350.4,153.4 L408.8,153.4 C410.666667,159 412.6,164.466667 414.6,169.8 C416.6,175.133333 418.533333,180.533333 420.4,186 L420.4,186 L447.6,186 C442.4,171.2 437.433333,157.533333 432.7,145 C427.966667,132.466667 423.366667,120.6 418.9,109.4 C414.433333,98.2 410,87.5333333 405.6,77.4 C401.2,67.2666667 396.666667,57.2666667 392,47.4 L392,47.4 L368.2,47.4 C363.533333,57.2666667 359,67.2666667 354.6,77.4 C350.2,87.5333333 345.766667,98.2 341.3,109.4 C336.833333,120.6 332.266667,132.466667 327.6,145 C322.933333,157.533333 318,171.2 312.8,186 L312.8,186 L339,186 Z M402.4,133 L356.8,133 C361.066667,121.133333 365.166667,110.133333 369.1,100 C373.033333,89.8666667 376.533333,81.2666667 379.6,74.2 C382.533333,81 386,89.5333333 390,99.8 C394,110.066667 398.133333,121.133333 402.4,133 L402.4,133 Z M490,186 L490,86.8 C495.6,93.4666667 501.5,100.966667 507.7,109.3 C513.9,117.633333 520,126.233333 526,135.1 C532,143.966667 537.8,152.766667 543.4,161.5 C549,170.233333 554.066667,178.4 558.6,186 L558.6,186 L580,186 L580,47.4 L555,47.4 L555,139.4 C550.466667,132.2 545.3,124.433333 539.5,116.1 C533.7,107.766667 527.7,99.4666667 521.5,91.2 C515.3,82.9333333 509.133333,74.9666667 503,67.3 C496.866667,59.6333333 491.133333,53 485.8,47.4 L485.8,47.4 L465.2,47.4 L465.2,186 L490,186 Z" id="PLAN" fill="#FFFFFF" fill-rule="nonzero"></path>
            </g>
        </g>
    </g>
</svg>