<?xml version="1.0" encoding="UTF-8"?>
<svg width="4645px" height="1214px" viewBox="0 0 4645 1214" version="1.1" xmlns="http://www.w3.org/2000/svg" xmlns:xlink="http://www.w3.org/1999/xlink">
    <title>hsd-api-banner</title>
    <g id="hsd-api-banner" stroke="none" stroke-width="1" fill="none" fill-rule="evenodd">
        <path d="M2471.35602,419 C2488.57713,419 2505.18869,421.236616 2521.19133,425.709919 C2537.19398,430.183239 2552.14034,436.486415 2566.03093,444.61973 C2579.92153,452.752992 2592.59345,462.553454 2604.04712,474.021401 C2606.00207,475.978793 2607.90851,477.971721 2609.76643,480.000188 L2582.5,480 C2565.77537,480 2549.80284,483.22017 2535.16862,489.074319 C2531.40863,487.030848 2527.52077,485.143635 2523.50642,483.415316 C2507.26008,476.420671 2489.87678,472.923421 2471.35602,472.923421 C2459.17127,472.923421 2447.43354,474.468728 2436.14231,477.559378 C2424.85108,480.65001 2414.33181,485.041933 2404.584,490.735234 L2383.38267,454.623608 L2383.38267,759.620374 L2404.3403,723.264766 C2414.25057,728.95805 2424.85108,733.349972 2436.14231,736.440622 C2447.43354,739.531272 2459.17127,741.076579 2471.35602,741.076579 C2489.87678,741.076579 2507.26008,737.579329 2523.50642,730.584684 C2527.14731,729.01715 2530.68415,727.320953 2534.11695,725.49609 C2549.03504,731.623085 2565.37316,735 2582.5,735 L2582.5,735 L2608.84322,735.000522 C2607.27835,736.684657 2605.67965,738.344009 2604.04712,739.978581 C2592.59345,751.446528 2579.92153,761.246972 2566.03093,769.38027 C2552.14034,777.513567 2537.19398,783.816761 2521.19133,788.290063 C2505.18869,792.763384 2488.57713,795 2471.35602,795 C2455.43462,795 2440.08206,793.129384 2425.29796,789.388062 C2410.51383,785.64674 2396.54218,780.19751 2383.38267,773.040229 L2383.38267,786.948083 L2329.28272,786.948083 L2329.28272,427.051899 L2383.38267,427.051899 L2383.38267,440.959753 C2396.54218,433.965127 2410.51383,428.556569 2425.29796,424.733938 C2440.08206,420.911289 2455.43462,419 2471.35602,419 Z M2131.40361,535.630757 C2149.27457,535.630757 2166.08923,539.04668 2181.84817,545.878652 C2197.6071,552.710607 2211.33502,561.982432 2223.03236,573.694344 C2234.72971,585.406273 2243.99001,599.15133 2250.81342,614.929908 C2257.63684,630.708486 2261.04855,647.54414 2261.04855,665.437369 C2261.04855,683.330617 2257.63684,700.125598 2250.81342,715.822849 C2243.99001,731.520099 2234.72971,745.224466 2223.03236,756.936413 C2211.33502,768.648342 2197.6071,777.92015 2181.84817,784.752104 C2166.08923,791.584076 2149.27457,795 2131.40361,795 C2117.91919,795 2105.00353,793.048056 2092.65635,789.144062 C2080.30916,785.240068 2068.93691,779.750201 2058.53927,772.674229 C2048.14163,765.598275 2038.9626,757.139794 2031.0019,747.298499 C2023.04121,737.457222 2016.62402,726.680797 2011.75012,714.96885 L2061.46358,694.229077 C2064.38791,701.061031 2068.20575,707.364224 2072.91717,713.138871 C2077.62862,718.913517 2083.03042,723.87473 2089.1228,728.022706 C2095.21517,732.1707 2101.83545,735.383278 2108.98382,737.660602 C2116.13218,739.937944 2123.60538,741.076579 2131.40361,741.076579 C2141.80124,741.076579 2151.63014,739.083945 2160.89052,735.098642 C2170.1509,731.11332 2178.19272,725.704763 2185.01618,718.872809 C2191.83963,712.040854 2197.24145,704.029682 2201.2218,694.839058 C2205.20214,685.648453 2207.19228,675.847973 2207.19228,665.437369 C2207.19228,655.026766 2205.20214,645.185649 2201.2218,635.913698 C2197.24145,626.64173 2191.83963,618.589903 2185.01618,611.757948 C2178.19272,604.925976 2170.1509,599.517437 2160.89052,595.532115 C2151.63014,591.546811 2141.80124,589.554177 2131.40361,589.554177 L2131.40361,535.630757 Z M1689.09995,427.051899 L1689.09995,580.038281 L1879.91194,580.038281 L1879.91194,427.051899 L1933.76821,427.051899 L1933.76821,786.948083 L1879.91194,786.948083 L1879.91194,633.961701 L1689.09995,633.961701 L1689.09995,786.948083 L1635,786.948083 L1635,427.051899 L1689.09995,427.051899 Z M2131.40361,419 C2144.88804,419 2157.8037,420.951944 2170.15089,424.855938 C2182.49805,428.759932 2193.82971,434.249799 2204.14612,441.325753 C2214.46249,448.401707 2223.64152,456.860206 2231.68348,466.701483 C2239.72544,476.542778 2246.18323,487.319203 2251.05711,499.03115 L2201.34365,519.770923 C2198.41932,512.938969 2194.64211,506.635776 2190.01189,500.861129 C2185.38169,495.086465 2180.02049,490.12527 2173.92813,485.977276 C2167.83576,481.8293 2161.17487,478.616722 2153.94527,476.33938 C2146.71564,474.062056 2139.20184,472.923421 2131.40361,472.923421 C2121.00597,472.923421 2111.21772,474.916037 2102.03854,478.901358 C2092.85939,482.88668 2084.85819,488.295219 2078.03475,495.127191 C2071.21129,501.959146 2065.80948,510.010973 2061.82913,519.282924 C2057.84877,528.554874 2055.85863,538.396009 2055.85863,548.806612 C2055.85863,559.217216 2057.84877,569.017696 2061.82913,578.208301 C2065.80948,587.398925 2071.21129,595.41008 2078.03475,602.242052 C2084.85819,609.074006 2092.85939,614.482563 2102.03854,618.467867 C2111.21772,622.453189 2121.00597,624.445805 2131.40361,624.445805 L2131.40361,678.369243 C2113.53267,678.369243 2096.75862,674.953302 2081.08091,668.121348 C2065.40321,661.289393 2051.71591,652.017568 2040.01856,640.305638 C2028.3212,628.593709 2019.06096,614.889325 2012.2375,599.192074 C2005.41405,583.494841 2002.00238,566.699842 2002.00238,548.806612 C2002.00238,530.913383 2005.41405,514.077729 2012.2375,498.299151 C2019.06096,482.520573 2028.3212,468.775534 2040.01856,457.063587 C2051.71591,445.35164 2065.40321,436.07985 2081.08091,429.247878 C2096.75862,422.415924 2113.53267,419 2131.40361,419 Z" id="HSD" fill="#E60028"></path>
        <g id="Pill" transform="translate(2475.000000, 495.000000)">
            <rect id="Rectangle" fill="#2C8EFF" x="0" y="5" width="672" height="215" rx="107.5"></rect>
            <path d="M117.2,186 L117.2,137.2 L129.8,137.2 C139.933333,137.2 148.933333,136.333333 156.8,134.6 C164.666667,132.866667 171.333333,130.166667 176.8,126.5 C182.266667,122.833333 186.433333,118.1 189.3,112.3 C192.166667,106.5 193.6,99.5333333 193.6,91.4 C193.6,75.8 188.233333,64.3333333 177.5,57 C166.766667,49.6666667 151.333333,46 131.2,46 C125.2,46 118.633333,46.2333333 111.5,46.7 C104.366667,47.1666667 97.8666667,48.0666667 92,49.4 L92,49.4 L92,186 L117.2,186 Z M129.4,115.6 L117.2,115.6 L117.2,68.4 C121.333333,68 126.6,67.8 133,67.8 C137.8,67.8 142.3,68.1666667 146.5,68.9 C150.7,69.6333333 154.333333,70.8666667 157.4,72.6 C160.466667,74.3333333 162.866667,76.7333333 164.6,79.8 C166.333333,82.8666667 167.2,86.6666667 167.2,91.2 C167.2,100.666667 163.933333,107.1 157.4,110.5 C150.866667,113.9 141.533333,115.6 129.4,115.6 L129.4,115.6 Z M304.2,186 L304.2,164.2 L241.8,164.2 L241.8,47.4 L216.6,47.4 L216.6,186 L304.2,186 Z M339,186 C340.866667,180.666667 342.766667,175.3 344.7,169.9 C346.633333,164.5 348.533333,159 350.4,153.4 L350.4,153.4 L408.8,153.4 C410.666667,159 412.6,164.466667 414.6,169.8 C416.6,175.133333 418.533333,180.533333 420.4,186 L420.4,186 L447.6,186 C442.4,171.2 437.433333,157.533333 432.7,145 C427.966667,132.466667 423.366667,120.6 418.9,109.4 C414.433333,98.2 410,87.5333333 405.6,77.4 C401.2,67.2666667 396.666667,57.2666667 392,47.4 L392,47.4 L368.2,47.4 C363.533333,57.2666667 359,67.2666667 354.6,77.4 C350.2,87.5333333 345.766667,98.2 341.3,109.4 C336.833333,120.6 332.266667,132.466667 327.6,145 C322.933333,157.533333 318,171.2 312.8,186 L312.8,186 L339,186 Z M402.4,133 L356.8,133 C361.066667,121.133333 365.166667,110.133333 369.1,100 C373.033333,89.8666667 376.533333,81.2666667 379.6,74.2 C382.533333,81 386,89.5333333 390,99.8 C394,110.066667 398.133333,121.133333 402.4,133 L402.4,133 Z M490,186 L490,86.8 C495.6,93.4666667 501.5,100.966667 507.7,109.3 C513.9,117.633333 520,126.233333 526,135.1 C532,143.966667 537.8,152.766667 543.4,161.5 C549,170.233333 554.066667,178.4 558.6,186 L558.6,186 L580,186 L580,47.4 L555,47.4 L555,139.4 C550.466667,132.2 545.3,124.433333 539.5,116.1 C533.7,107.766667 527.7,99.4666667 521.5,91.2 C515.3,82.9333333 509.133333,74.9666667 503,67.3 C496.866667,59.6333333 491.133333,53 485.8,47.4 L485.8,47.4 L465.2,47.4 L465.2,186 L490,186 Z" id="PLAN" fill="#FFFFFF" fill-rule="nonzero"></path>
        </g>
    </g>
</svg>