<?xml version="1.0" encoding="UTF-8"?>
<svg width="6000px" height="910px" viewBox="0 0 6000 910" version="1.1" xmlns="http://www.w3.org/2000/svg" xmlns:xlink="http://www.w3.org/1999/xlink">
    <title>hsd-api-banner</title>
    <g id="hsd-api-banner" stroke="none" stroke-width="1" fill="none" fill-rule="evenodd">
        <g id="Group" transform="translate(2244.000000, 267.000000)">
            <path d="M836.356017,0 C853.577133,0 870.188689,2.23661577 886.191326,6.7099187 C902.193981,11.1832395 917.140342,17.4864148 931.030926,25.6197301 C944.921528,33.752992 957.593455,43.5534538 969.047117,55.0214011 C971.002071,56.9787934 972.908507,58.9717215 974.766426,61.0001875 L947.5,61 C930.775367,61 914.802845,64.22017 900.168625,70.0743192 C896.408631,68.0308479 892.520767,66.1436348 888.506417,64.4153159 C872.260084,57.4206714 854.876784,53.9234206 836.356017,53.9234206 C824.171268,53.9234206 812.433537,55.4687279 801.142309,58.5593781 C789.85108,61.6500104 779.33181,66.0419325 769.584,71.7352337 L748.382669,35.6236083 L748.382669,340.620374 L769.340304,304.264766 C779.250566,309.95805 789.85108,314.349972 801.142309,317.440622 C812.433537,320.531272 824.171268,322.076579 836.356017,322.076579 C854.876784,322.076579 872.260084,318.579329 888.506417,311.584684 C892.147305,310.01715 895.684147,308.320953 899.116948,306.49609 C914.03504,312.623085 930.37316,316 947.5,316 L947.5,316 L973.843222,316.000522 C972.278354,317.684657 970.679653,319.344009 969.047117,320.978581 C957.593455,332.446528 944.921528,342.246972 931.030926,350.38027 C917.140342,358.513567 902.193981,364.816761 886.191326,369.290063 C870.188689,373.763384 853.577133,376 836.356017,376 C820.434624,376 805.082062,374.129384 790.297957,370.388062 C775.513834,366.64674 761.542184,361.19751 748.382669,354.040229 L748.382669,367.948083 L694.282722,367.948083 L694.282722,8.05189887 L748.382669,8.05189887 L748.382669,21.9597534 C761.542184,14.9651268 775.513834,9.55656926 790.297957,5.73393799 C805.082062,1.91128887 820.434624,0 836.356017,0 Z M496.403608,116.630757 C514.274568,116.630757 531.089233,120.04668 546.848174,126.878652 C562.607098,133.710607 576.335016,142.982432 588.032356,154.694344 C599.729715,166.406273 608.990009,180.15133 615.813417,195.929908 C622.636844,211.708486 626.048548,228.54414 626.048548,246.437369 C626.048548,264.330617 622.636844,281.125598 615.813417,296.822849 C608.990009,312.520099 599.729715,326.224466 588.032356,337.936413 C576.335016,349.648342 562.607098,358.92015 546.848174,365.752104 C531.089233,372.584076 514.274568,376 496.403608,376 C482.91919,376 470.003531,374.048056 457.656348,370.144062 C445.309164,366.240068 433.936906,360.750201 423.53927,353.674229 C413.141634,346.598275 403.962601,338.139794 396.001904,328.298499 C388.041208,318.457222 381.624018,307.680797 376.750122,295.96885 L426.463582,275.229077 C429.387913,282.061031 433.205747,288.364224 437.917174,294.138871 C442.628618,299.913517 448.030421,304.87473 454.122796,309.022706 C460.21517,313.1707 466.835452,316.383278 473.983817,318.660602 C481.132183,320.937944 488.605382,322.076579 496.403608,322.076579 C506.801244,322.076579 516.630138,320.083945 525.890522,316.098642 C535.150905,312.11332 543.192721,306.704763 550.016183,299.872809 C556.839627,293.040854 562.241447,285.029682 566.221804,275.839058 C570.202144,266.648453 572.192278,256.847973 572.192278,246.437369 C572.192278,236.026766 570.202144,226.185649 566.221804,216.913698 C562.241447,207.64173 556.839627,199.589903 550.016183,192.757948 C543.192721,185.925976 535.150905,180.517437 525.890522,176.532115 C516.630138,172.546811 506.801244,170.554177 496.403608,170.554177 L496.403608,116.630757 Z M54.0999477,8.05189887 L54.0999477,161.038281 L244.911939,161.038281 L244.911939,8.05189887 L298.768209,8.05189887 L298.768209,367.948083 L244.911939,367.948083 L244.911939,214.961701 L54.0999477,214.961701 L54.0999477,367.948083 L0,367.948083 L0,8.05189887 L54.0999477,8.05189887 Z M496.403608,0 C509.888045,0 522.803703,1.95194358 535.150887,5.85593781 C547.498053,9.75993204 558.829707,15.249799 569.146117,22.3257529 C579.462492,29.4017067 588.641524,37.8602062 596.683483,47.7014833 C604.725441,57.5427783 611.183235,68.319203 616.057113,80.03115 L566.343652,100.770923 C563.419322,93.9389689 559.64211,87.6357757 555.011891,81.8611295 C550.381691,76.0864654 545.020492,71.1252703 538.928135,66.9772764 C532.83576,62.8293004 526.174875,59.6167217 518.945265,57.3393799 C511.715638,55.0620559 504.201835,53.9234206 496.403608,53.9234206 C486.005973,53.9234206 476.217718,55.9160367 467.038543,59.9013582 C457.859386,63.8866797 449.858192,69.2952194 443.034748,76.1271915 C436.211286,82.9591457 430.809483,91.0109732 426.829126,100.282924 C422.848769,109.554874 420.858635,119.396009 420.858635,129.806612 C420.858635,140.217216 422.848769,150.017696 426.829126,159.208301 C430.809483,168.398925 436.211286,176.41008 443.034748,183.242052 C449.858192,190.074006 457.859386,195.482563 467.038543,199.467867 C476.217718,203.453189 486.005973,205.445805 496.403608,205.445805 L496.403608,259.369243 C478.532667,259.369243 461.758624,255.953302 446.080909,249.121348 C430.403211,242.289393 416.715915,233.017568 405.018556,221.305638 C393.321198,209.593709 384.060957,195.889325 377.237495,180.192074 C370.414051,164.494841 367.002383,147.699842 367.002383,129.806612 C367.002383,111.913383 370.414051,95.077729 377.237495,79.2991511 C384.060957,63.5205732 393.321198,49.7755338 405.018556,38.0635868 C416.715915,26.3516398 430.403211,17.0798498 446.080909,10.2478778 C461.758624,3.41592357 478.532667,0 496.403608,0 Z" id="HSD" fill="#E60028"></path>
            <g id="Pill" transform="translate(839.500000, 75.000000)">
                <rect id="Rectangle" fill="#2C8EFF" x="0.5" y="6" width="539" height="215" rx="107.5"></rect>
                <g id="API" transform="translate(117.835295, 46.000000)" fill="#FFFFFF">
                    <path d="M107.6,140 C105.733333,134.533333 103.8,129.133333 101.8,123.8 C99.8,118.466667 97.8666667,113 96,107.4 L37.6,107.4 C35.7333333,113 33.8333333,118.5 31.9,123.9 C29.9666667,129.3 28.0666667,134.666667 26.2,140 L-2.84217094e-14,140 C5.2,125.2 10.1333333,111.533333 14.8,99 C19.4666667,86.4666667 24.0333333,74.6 28.5,63.4 C32.9666667,52.2 37.4,41.5333333 41.8,31.4 C46.2,21.2666667 50.7333333,11.2666667 55.4,1.4 L79.2,1.4 C83.8666667,11.2666667 88.4,21.2666667 92.8,31.4 C97.2,41.5333333 101.633333,52.2 106.1,63.4 C110.566667,74.6 115.166667,86.4666667 119.9,99 C124.633333,111.533333 129.6,125.2 134.8,140 L107.6,140 Z M66.8,28.2 C63.7333333,35.2666667 60.2333333,43.8666667 56.3,54 C52.3666667,64.1333333 48.2666667,75.1333333 44,87 L89.6,87 C85.3333333,75.1333333 81.2,64.0666667 77.2,53.8 C73.2,43.5333333 69.7333333,35 66.8,28.2 Z" id="A"></path>
                    <path d="M186.77647,0 C206.909803,0 222.343137,3.66666667 233.07647,11 C243.809803,18.3333333 249.17647,29.8 249.17647,45.4 C249.17647,53.5333333 247.743137,60.5 244.87647,66.3 C242.009803,72.1 237.843137,76.8333333 232.37647,80.5 C226.909803,84.1666667 220.243137,86.8666667 212.37647,88.6 C204.509803,90.3333333 195.509803,91.2 185.37647,91.2 L172.77647,91.2 L172.77647,140 L147.57647,140 L147.57647,3.4 C153.443137,2.06666667 159.943137,1.16666667 167.07647,0.7 C174.209803,0.233333333 180.77647,0 186.77647,0 Z M188.57647,21.8 C182.17647,21.8 176.909803,22 172.77647,22.4 L172.77647,69.6 L184.97647,69.6 C197.109803,69.6 206.443137,67.9 212.97647,64.5 C219.509803,61.1 222.77647,54.6666667 222.77647,45.2 C222.77647,40.6666667 221.909803,36.8666667 220.17647,33.8 C218.443137,30.7333333 216.043137,28.3333333 212.97647,26.6 C209.909803,24.8666667 206.27647,23.6333333 202.07647,22.9 C197.87647,22.1666667 193.37647,21.8 188.57647,21.8 Z" id="P"></path>
                    <polygon id="I" points="267.35294 1.4 292.55294 1.4 292.55294 140 267.35294 140"></polygon>
                </g>
            </g>
        </g>
    </g>
</svg>
